<svg xmlns="http://www.w3.org/2000/svg" version="1.1" xmlns:xlink="http://www.w3.org/1999/xlink" xmlns:svgjs="http://svgjs.dev/svgjs" viewBox="0 0 800 800"><g stroke-width="3" stroke="hsla(152, 97%, 36%, 1.00)" fill="none" stroke-linecap="round" transform="matrix(1,0,0,1,-5,-522.5128440856934)"><path d="M10,10C24.583333333333332,13.333333333333332,48.75,31.208333333333336,80,26C111.25,20.791666666666664,126.66666666666666,-13.541666666666666,160,-15C193.33333333333334,-16.458333333333332,206.66666666666666,18.583333333333332,240,19C273.3333333333333,19.416666666666668,286.6666666666667,-14.875,320,-13C353.3333333333333,-11.125,366.6666666666667,27.375,400,28C433.3333333333333,28.625,446.6666666666667,-11.458333333333334,480,-10C513.3333333333334,-8.541666666666666,526.6666666666666,33.125,560,35C593.3333333333334,36.875,606.6666666666666,0.4583333333333335,640,-1C673.3333333333334,-2.4583333333333335,686.6666666666666,27.375,720,28C753.3333333333334,28.625,783.3333333333334,7.416666666666666,800,2"></path><path d="M10,10C24.583333333333332,13.333333333333332,48.75,31.208333333333336,80,26C111.25,20.791666666666664,126.66666666666666,-13.541666666666666,160,-15C193.33333333333334,-16.458333333333332,206.66666666666666,18.583333333333332,240,19C273.3333333333333,19.416666666666668,286.6666666666667,-14.875,320,-13C353.3333333333333,-11.125,366.6666666666667,27.375,400,28C433.3333333333333,28.625,446.6666666666667,-11.458333333333334,480,-10C513.3333333333334,-8.541666666666666,526.6666666666666,33.125,560,35C593.3333333333334,36.875,606.6666666666666,0.4583333333333335,640,-1C673.3333333333334,-2.4583333333333335,686.6666666666666,27.375,720,28C753.3333333333334,28.625,783.3333333333334,7.416666666666666,800,2" transform="matrix(1,0,0,1,0,1825)"></path><path d="M10,10C24.583333333333332,13.333333333333332,48.75,31.208333333333336,80,26C111.25,20.791666666666664,126.66666666666666,-13.541666666666666,160,-15C193.33333333333334,-16.458333333333332,206.66666666666666,18.583333333333332,240,19C273.3333333333333,19.416666666666668,286.6666666666667,-14.875,320,-13C353.3333333333333,-11.125,366.6666666666667,27.375,400,28C433.3333333333333,28.625,446.6666666666667,-11.458333333333334,480,-10C513.3333333333334,-8.541666666666666,526.6666666666666,33.125,560,35C593.3333333333334,36.875,606.6666666666666,0.4583333333333335,640,-1C673.3333333333334,-2.4583333333333335,686.6666666666666,27.375,720,28C753.3333333333334,28.625,783.3333333333334,7.416666666666666,800,2" transform="matrix(1,0,0,1,0,1752)"></path><path d="M10,10C24.583333333333332,13.333333333333332,48.75,31.208333333333336,80,26C111.25,20.791666666666664,126.66666666666666,-13.541666666666666,160,-15C193.33333333333334,-16.458333333333332,206.66666666666666,18.583333333333332,240,19C273.3333333333333,19.416666666666668,286.6666666666667,-14.875,320,-13C353.3333333333333,-11.125,366.6666666666667,27.375,400,28C433.3333333333333,28.625,446.6666666666667,-11.458333333333334,480,-10C513.3333333333334,-8.541666666666666,526.6666666666666,33.125,560,35C593.3333333333334,36.875,606.6666666666666,0.4583333333333335,640,-1C673.3333333333334,-2.4583333333333335,686.6666666666666,27.375,720,28C753.3333333333334,28.625,783.3333333333334,7.416666666666666,800,2" transform="matrix(1,0,0,1,0,1679)"></path><path d="M10,10C24.583333333333332,13.333333333333332,48.75,31.208333333333336,80,26C111.25,20.791666666666664,126.66666666666666,-13.541666666666666,160,-15C193.33333333333334,-16.458333333333332,206.66666666666666,18.583333333333332,240,19C273.3333333333333,19.416666666666668,286.6666666666667,-14.875,320,-13C353.3333333333333,-11.125,366.6666666666667,27.375,400,28C433.3333333333333,28.625,446.6666666666667,-11.458333333333334,480,-10C513.3333333333334,-8.541666666666666,526.6666666666666,33.125,560,35C593.3333333333334,36.875,606.6666666666666,0.4583333333333335,640,-1C673.3333333333334,-2.4583333333333335,686.6666666666666,27.375,720,28C753.3333333333334,28.625,783.3333333333334,7.416666666666666,800,2" transform="matrix(1,0,0,1,0,1606)"></path><path d="M10,10C24.583333333333332,13.333333333333332,48.75,31.208333333333336,80,26C111.25,20.791666666666664,126.66666666666666,-13.541666666666666,160,-15C193.33333333333334,-16.458333333333332,206.66666666666666,18.583333333333332,240,19C273.3333333333333,19.416666666666668,286.6666666666667,-14.875,320,-13C353.3333333333333,-11.125,366.6666666666667,27.375,400,28C433.3333333333333,28.625,446.6666666666667,-11.458333333333334,480,-10C513.3333333333334,-8.541666666666666,526.6666666666666,33.125,560,35C593.3333333333334,36.875,606.6666666666666,0.4583333333333335,640,-1C673.3333333333334,-2.4583333333333335,686.6666666666666,27.375,720,28C753.3333333333334,28.625,783.3333333333334,7.416666666666666,800,2" transform="matrix(1,0,0,1,0,1533)"></path><path d="M10,10C24.583333333333332,13.333333333333332,48.75,31.208333333333336,80,26C111.25,20.791666666666664,126.66666666666666,-13.541666666666666,160,-15C193.33333333333334,-16.458333333333332,206.66666666666666,18.583333333333332,240,19C273.3333333333333,19.416666666666668,286.6666666666667,-14.875,320,-13C353.3333333333333,-11.125,366.6666666666667,27.375,400,28C433.3333333333333,28.625,446.6666666666667,-11.458333333333334,480,-10C513.3333333333334,-8.541666666666666,526.6666666666666,33.125,560,35C593.3333333333334,36.875,606.6666666666666,0.4583333333333335,640,-1C673.3333333333334,-2.4583333333333335,686.6666666666666,27.375,720,28C753.3333333333334,28.625,783.3333333333334,7.416666666666666,800,2" transform="matrix(1,0,0,1,0,1460)"></path><path d="M10,10C24.583333333333332,13.333333333333332,48.75,31.208333333333336,80,26C111.25,20.791666666666664,126.66666666666666,-13.541666666666666,160,-15C193.33333333333334,-16.458333333333332,206.66666666666666,18.583333333333332,240,19C273.3333333333333,19.416666666666668,286.6666666666667,-14.875,320,-13C353.3333333333333,-11.125,366.6666666666667,27.375,400,28C433.3333333333333,28.625,446.6666666666667,-11.458333333333334,480,-10C513.3333333333334,-8.541666666666666,526.6666666666666,33.125,560,35C593.3333333333334,36.875,606.6666666666666,0.4583333333333335,640,-1C673.3333333333334,-2.4583333333333335,686.6666666666666,27.375,720,28C753.3333333333334,28.625,783.3333333333334,7.416666666666666,800,2" transform="matrix(1,0,0,1,0,1387)"></path><path d="M10,10C24.583333333333332,13.333333333333332,48.75,31.208333333333336,80,26C111.25,20.791666666666664,126.66666666666666,-13.541666666666666,160,-15C193.33333333333334,-16.458333333333332,206.66666666666666,18.583333333333332,240,19C273.3333333333333,19.416666666666668,286.6666666666667,-14.875,320,-13C353.3333333333333,-11.125,366.6666666666667,27.375,400,28C433.3333333333333,28.625,446.6666666666667,-11.458333333333334,480,-10C513.3333333333334,-8.541666666666666,526.6666666666666,33.125,560,35C593.3333333333334,36.875,606.6666666666666,0.4583333333333335,640,-1C673.3333333333334,-2.4583333333333335,686.6666666666666,27.375,720,28C753.3333333333334,28.625,783.3333333333334,7.416666666666666,800,2" transform="matrix(1,0,0,1,0,1314)"></path><path d="M10,10C24.583333333333332,13.333333333333332,48.75,31.208333333333336,80,26C111.25,20.791666666666664,126.66666666666666,-13.541666666666666,160,-15C193.33333333333334,-16.458333333333332,206.66666666666666,18.583333333333332,240,19C273.3333333333333,19.416666666666668,286.6666666666667,-14.875,320,-13C353.3333333333333,-11.125,366.6666666666667,27.375,400,28C433.3333333333333,28.625,446.6666666666667,-11.458333333333334,480,-10C513.3333333333334,-8.541666666666666,526.6666666666666,33.125,560,35C593.3333333333334,36.875,606.6666666666666,0.4583333333333335,640,-1C673.3333333333334,-2.4583333333333335,686.6666666666666,27.375,720,28C753.3333333333334,28.625,783.3333333333334,7.416666666666666,800,2" transform="matrix(1,0,0,1,0,1241)"></path><path d="M10,10C24.583333333333332,13.333333333333332,48.75,31.208333333333336,80,26C111.25,20.791666666666664,126.66666666666666,-13.541666666666666,160,-15C193.33333333333334,-16.458333333333332,206.66666666666666,18.583333333333332,240,19C273.3333333333333,19.416666666666668,286.6666666666667,-14.875,320,-13C353.3333333333333,-11.125,366.6666666666667,27.375,400,28C433.3333333333333,28.625,446.6666666666667,-11.458333333333334,480,-10C513.3333333333334,-8.541666666666666,526.6666666666666,33.125,560,35C593.3333333333334,36.875,606.6666666666666,0.4583333333333335,640,-1C673.3333333333334,-2.4583333333333335,686.6666666666666,27.375,720,28C753.3333333333334,28.625,783.3333333333334,7.416666666666666,800,2" transform="matrix(1,0,0,1,0,1168)"></path><path d="M10,10C24.583333333333332,13.333333333333332,48.75,31.208333333333336,80,26C111.25,20.791666666666664,126.66666666666666,-13.541666666666666,160,-15C193.33333333333334,-16.458333333333332,206.66666666666666,18.583333333333332,240,19C273.3333333333333,19.416666666666668,286.6666666666667,-14.875,320,-13C353.3333333333333,-11.125,366.6666666666667,27.375,400,28C433.3333333333333,28.625,446.6666666666667,-11.458333333333334,480,-10C513.3333333333334,-8.541666666666666,526.6666666666666,33.125,560,35C593.3333333333334,36.875,606.6666666666666,0.4583333333333335,640,-1C673.3333333333334,-2.4583333333333335,686.6666666666666,27.375,720,28C753.3333333333334,28.625,783.3333333333334,7.416666666666666,800,2" transform="matrix(1,0,0,1,0,1095)"></path><path d="M10,10C24.583333333333332,13.333333333333332,48.75,31.208333333333336,80,26C111.25,20.791666666666664,126.66666666666666,-13.541666666666666,160,-15C193.33333333333334,-16.458333333333332,206.66666666666666,18.583333333333332,240,19C273.3333333333333,19.416666666666668,286.6666666666667,-14.875,320,-13C353.3333333333333,-11.125,366.6666666666667,27.375,400,28C433.3333333333333,28.625,446.6666666666667,-11.458333333333334,480,-10C513.3333333333334,-8.541666666666666,526.6666666666666,33.125,560,35C593.3333333333334,36.875,606.6666666666666,0.4583333333333335,640,-1C673.3333333333334,-2.4583333333333335,686.6666666666666,27.375,720,28C753.3333333333334,28.625,783.3333333333334,7.416666666666666,800,2" transform="matrix(1,0,0,1,0,1022)"></path><path d="M10,10C24.583333333333332,13.333333333333332,48.75,31.208333333333336,80,26C111.25,20.791666666666664,126.66666666666666,-13.541666666666666,160,-15C193.33333333333334,-16.458333333333332,206.66666666666666,18.583333333333332,240,19C273.3333333333333,19.416666666666668,286.6666666666667,-14.875,320,-13C353.3333333333333,-11.125,366.6666666666667,27.375,400,28C433.3333333333333,28.625,446.6666666666667,-11.458333333333334,480,-10C513.3333333333334,-8.541666666666666,526.6666666666666,33.125,560,35C593.3333333333334,36.875,606.6666666666666,0.4583333333333335,640,-1C673.3333333333334,-2.4583333333333335,686.6666666666666,27.375,720,28C753.3333333333334,28.625,783.3333333333334,7.416666666666666,800,2" transform="matrix(1,0,0,1,0,949)"></path><path d="M10,10C24.583333333333332,13.333333333333332,48.75,31.208333333333336,80,26C111.25,20.791666666666664,126.66666666666666,-13.541666666666666,160,-15C193.33333333333334,-16.458333333333332,206.66666666666666,18.583333333333332,240,19C273.3333333333333,19.416666666666668,286.6666666666667,-14.875,320,-13C353.3333333333333,-11.125,366.6666666666667,27.375,400,28C433.3333333333333,28.625,446.6666666666667,-11.458333333333334,480,-10C513.3333333333334,-8.541666666666666,526.6666666666666,33.125,560,35C593.3333333333334,36.875,606.6666666666666,0.4583333333333335,640,-1C673.3333333333334,-2.4583333333333335,686.6666666666666,27.375,720,28C753.3333333333334,28.625,783.3333333333334,7.416666666666666,800,2" transform="matrix(1,0,0,1,0,876)"></path><path d="M10,10C24.583333333333332,13.333333333333332,48.75,31.208333333333336,80,26C111.25,20.791666666666664,126.66666666666666,-13.541666666666666,160,-15C193.33333333333334,-16.458333333333332,206.66666666666666,18.583333333333332,240,19C273.3333333333333,19.416666666666668,286.6666666666667,-14.875,320,-13C353.3333333333333,-11.125,366.6666666666667,27.375,400,28C433.3333333333333,28.625,446.6666666666667,-11.458333333333334,480,-10C513.3333333333334,-8.541666666666666,526.6666666666666,33.125,560,35C593.3333333333334,36.875,606.6666666666666,0.4583333333333335,640,-1C673.3333333333334,-2.4583333333333335,686.6666666666666,27.375,720,28C753.3333333333334,28.625,783.3333333333334,7.416666666666666,800,2" transform="matrix(1,0,0,1,0,803)"></path><path d="M10,10C24.583333333333332,13.333333333333332,48.75,31.208333333333336,80,26C111.25,20.791666666666664,126.66666666666666,-13.541666666666666,160,-15C193.33333333333334,-16.458333333333332,206.66666666666666,18.583333333333332,240,19C273.3333333333333,19.416666666666668,286.6666666666667,-14.875,320,-13C353.3333333333333,-11.125,366.6666666666667,27.375,400,28C433.3333333333333,28.625,446.6666666666667,-11.458333333333334,480,-10C513.3333333333334,-8.541666666666666,526.6666666666666,33.125,560,35C593.3333333333334,36.875,606.6666666666666,0.4583333333333335,640,-1C673.3333333333334,-2.4583333333333335,686.6666666666666,27.375,720,28C753.3333333333334,28.625,783.3333333333334,7.416666666666666,800,2" transform="matrix(1,0,0,1,0,730)"></path><path d="M10,10C24.583333333333332,13.333333333333332,48.75,31.208333333333336,80,26C111.25,20.791666666666664,126.66666666666666,-13.541666666666666,160,-15C193.33333333333334,-16.458333333333332,206.66666666666666,18.583333333333332,240,19C273.3333333333333,19.416666666666668,286.6666666666667,-14.875,320,-13C353.3333333333333,-11.125,366.6666666666667,27.375,400,28C433.3333333333333,28.625,446.6666666666667,-11.458333333333334,480,-10C513.3333333333334,-8.541666666666666,526.6666666666666,33.125,560,35C593.3333333333334,36.875,606.6666666666666,0.4583333333333335,640,-1C673.3333333333334,-2.4583333333333335,686.6666666666666,27.375,720,28C753.3333333333334,28.625,783.3333333333334,7.416666666666666,800,2" transform="matrix(1,0,0,1,0,657)"></path><path d="M10,10C24.583333333333332,13.333333333333332,48.75,31.208333333333336,80,26C111.25,20.791666666666664,126.66666666666666,-13.541666666666666,160,-15C193.33333333333334,-16.458333333333332,206.66666666666666,18.583333333333332,240,19C273.3333333333333,19.416666666666668,286.6666666666667,-14.875,320,-13C353.3333333333333,-11.125,366.6666666666667,27.375,400,28C433.3333333333333,28.625,446.6666666666667,-11.458333333333334,480,-10C513.3333333333334,-8.541666666666666,526.6666666666666,33.125,560,35C593.3333333333334,36.875,606.6666666666666,0.4583333333333335,640,-1C673.3333333333334,-2.4583333333333335,686.6666666666666,27.375,720,28C753.3333333333334,28.625,783.3333333333334,7.416666666666666,800,2" transform="matrix(1,0,0,1,0,584)"></path><path d="M10,10C24.583333333333332,13.333333333333332,48.75,31.208333333333336,80,26C111.25,20.791666666666664,126.66666666666666,-13.541666666666666,160,-15C193.33333333333334,-16.458333333333332,206.66666666666666,18.583333333333332,240,19C273.3333333333333,19.416666666666668,286.6666666666667,-14.875,320,-13C353.3333333333333,-11.125,366.6666666666667,27.375,400,28C433.3333333333333,28.625,446.6666666666667,-11.458333333333334,480,-10C513.3333333333334,-8.541666666666666,526.6666666666666,33.125,560,35C593.3333333333334,36.875,606.6666666666666,0.4583333333333335,640,-1C673.3333333333334,-2.4583333333333335,686.6666666666666,27.375,720,28C753.3333333333334,28.625,783.3333333333334,7.416666666666666,800,2" transform="matrix(1,0,0,1,0,511)"></path><path d="M10,10C24.583333333333332,13.333333333333332,48.75,31.208333333333336,80,26C111.25,20.791666666666664,126.66666666666666,-13.541666666666666,160,-15C193.33333333333334,-16.458333333333332,206.66666666666666,18.583333333333332,240,19C273.3333333333333,19.416666666666668,286.6666666666667,-14.875,320,-13C353.3333333333333,-11.125,366.6666666666667,27.375,400,28C433.3333333333333,28.625,446.6666666666667,-11.458333333333334,480,-10C513.3333333333334,-8.541666666666666,526.6666666666666,33.125,560,35C593.3333333333334,36.875,606.6666666666666,0.4583333333333335,640,-1C673.3333333333334,-2.4583333333333335,686.6666666666666,27.375,720,28C753.3333333333334,28.625,783.3333333333334,7.416666666666666,800,2" transform="matrix(1,0,0,1,0,438)"></path><path d="M10,10C24.583333333333332,13.333333333333332,48.75,31.208333333333336,80,26C111.25,20.791666666666664,126.66666666666666,-13.541666666666666,160,-15C193.33333333333334,-16.458333333333332,206.66666666666666,18.583333333333332,240,19C273.3333333333333,19.416666666666668,286.6666666666667,-14.875,320,-13C353.3333333333333,-11.125,366.6666666666667,27.375,400,28C433.3333333333333,28.625,446.6666666666667,-11.458333333333334,480,-10C513.3333333333334,-8.541666666666666,526.6666666666666,33.125,560,35C593.3333333333334,36.875,606.6666666666666,0.4583333333333335,640,-1C673.3333333333334,-2.4583333333333335,686.6666666666666,27.375,720,28C753.3333333333334,28.625,783.3333333333334,7.416666666666666,800,2" transform="matrix(1,0,0,1,0,365)"></path><path d="M10,10C24.583333333333332,13.333333333333332,48.75,31.208333333333336,80,26C111.25,20.791666666666664,126.66666666666666,-13.541666666666666,160,-15C193.33333333333334,-16.458333333333332,206.66666666666666,18.583333333333332,240,19C273.3333333333333,19.416666666666668,286.6666666666667,-14.875,320,-13C353.3333333333333,-11.125,366.6666666666667,27.375,400,28C433.3333333333333,28.625,446.6666666666667,-11.458333333333334,480,-10C513.3333333333334,-8.541666666666666,526.6666666666666,33.125,560,35C593.3333333333334,36.875,606.6666666666666,0.4583333333333335,640,-1C673.3333333333334,-2.4583333333333335,686.6666666666666,27.375,720,28C753.3333333333334,28.625,783.3333333333334,7.416666666666666,800,2" transform="matrix(1,0,0,1,0,292)"></path><path d="M10,10C24.583333333333332,13.333333333333332,48.75,31.208333333333336,80,26C111.25,20.791666666666664,126.66666666666666,-13.541666666666666,160,-15C193.33333333333334,-16.458333333333332,206.66666666666666,18.583333333333332,240,19C273.3333333333333,19.416666666666668,286.6666666666667,-14.875,320,-13C353.3333333333333,-11.125,366.6666666666667,27.375,400,28C433.3333333333333,28.625,446.6666666666667,-11.458333333333334,480,-10C513.3333333333334,-8.541666666666666,526.6666666666666,33.125,560,35C593.3333333333334,36.875,606.6666666666666,0.4583333333333335,640,-1C673.3333333333334,-2.4583333333333335,686.6666666666666,27.375,720,28C753.3333333333334,28.625,783.3333333333334,7.416666666666666,800,2" transform="matrix(1,0,0,1,0,219)"></path><path d="M10,10C24.583333333333332,13.333333333333332,48.75,31.208333333333336,80,26C111.25,20.791666666666664,126.66666666666666,-13.541666666666666,160,-15C193.33333333333334,-16.458333333333332,206.66666666666666,18.583333333333332,240,19C273.3333333333333,19.416666666666668,286.6666666666667,-14.875,320,-13C353.3333333333333,-11.125,366.6666666666667,27.375,400,28C433.3333333333333,28.625,446.6666666666667,-11.458333333333334,480,-10C513.3333333333334,-8.541666666666666,526.6666666666666,33.125,560,35C593.3333333333334,36.875,606.6666666666666,0.4583333333333335,640,-1C673.3333333333334,-2.4583333333333335,686.6666666666666,27.375,720,28C753.3333333333334,28.625,783.3333333333334,7.416666666666666,800,2" transform="matrix(1,0,0,1,0,146)"></path><path d="M10,10C24.583333333333332,13.333333333333332,48.75,31.208333333333336,80,26C111.25,20.791666666666664,126.66666666666666,-13.541666666666666,160,-15C193.33333333333334,-16.458333333333332,206.66666666666666,18.583333333333332,240,19C273.3333333333333,19.416666666666668,286.6666666666667,-14.875,320,-13C353.3333333333333,-11.125,366.6666666666667,27.375,400,28C433.3333333333333,28.625,446.6666666666667,-11.458333333333334,480,-10C513.3333333333334,-8.541666666666666,526.6666666666666,33.125,560,35C593.3333333333334,36.875,606.6666666666666,0.4583333333333335,640,-1C673.3333333333334,-2.4583333333333335,686.6666666666666,27.375,720,28C753.3333333333334,28.625,783.3333333333334,7.416666666666666,800,2" transform="matrix(1,0,0,1,0,73)"></path></g></svg>